<?xml version="1.0" encoding="UTF-8" standalone="no"?>
<svg width="39px" height="40px" viewBox="0 0 34 35" version="1.1" xmlns="http://www.w3.org/2000/svg" xmlns:xlink="http://www.w3.org/1999/xlink" xmlns:sketch="http://www.bohemiancoding.com/sketch/ns">
    <!-- Generator: Sketch 3.5.2 (25235) - http://www.bohemiancoding.com/sketch -->
    <title>qiwi</title>
    <desc>Created with Sketch.</desc>
    <defs></defs>
    <g id="Page-1" stroke="none" stroke-width="1" fill="none" fill-rule="evenodd" sketch:type="MSPage">
        <g id="Desktop_v1" sketch:type="MSArtboardGroup" transform="translate(-766.000000, -307.000000)" fill="#FF9900">
            <g id="про-меню" sketch:type="MSLayerGroup" transform="translate(328.000000, 255.000000)">
                <g id="2" transform="translate(329.000000, 46.000000)" sketch:type="MSShapeGroup">
                    <path d="M141.723104,39.4945468 C140.869117,37.7568382 139.354539,36.481567 137.71341,35.5036451 C137.144402,35.1644291 136.50189,34.9251225 135.941922,34.7417175 C134.654043,34.324715 133.407556,34.228136 131.954113,33.9795521 C130.77328,33.7775926 129.840317,33.2920808 128.839083,32.6124595 C128.317651,32.2558784 127.891134,31.7670363 127.53479,31.2489351 C127.468422,31.1445061 127.135391,30.7389218 127.168694,30.5995245 C127.168694,30.5995245 126.936524,31.5289191 127.396345,32.8332116 C123.169704,32.6438596 119.464496,30.3000344 117.767465,27.4588036 C114.642919,22.2306914 115.744063,15.8945372 119.90933,13.0963625 C124.073408,10.2972363 130.423359,12.2718727 133.822417,17.32443 C135.955957,20.4953616 136.50189,24.1843944 135.587958,27.1847666 C135.581059,27.2080788 135.572495,27.2299637 135.565597,27.2532758 C133.759617,25.9397061 132.109924,26.6098122 132.109924,26.6098122 C133.919948,26.422839 135.35103,27.8631985 135.35103,27.8631985 C135.561077,28.0501716 135.763037,28.2568888 135.94668,28.4869181 C135.987357,28.5425819 136.030175,28.599435 136.071091,28.6598564 C136.544946,29.30332 136.840868,30.0188611 136.966468,30.7448688 C140.560112,26.1859112 141.153858,19.871642 137.97365,14.9677593 C133.923278,8.7174796 125.286117,7.12154709 118.688533,11.3983798 C112.087619,15.6785428 110.022351,24.2098475 114.074863,30.4591757 C117.403747,35.6011756 125.21285,37.1692762 129.689264,35.752229 C131.381775,35.2200929 137.176754,34.7136478 141.210712,39.478371 C141.210712,39.478371 141.558967,39.8768189 141.748557,40.3309306 C141.748557,40.3309306 141.804458,40.4900718 141.954085,40.4132368 C141.993573,40.3923034 142.1049,40.2633728 141.723104,39.4945468 L141.723104,39.4945468 Z M133.416833,31.056015 C133.412075,31.0526847 133.408983,31.0526847 133.404225,31.0491165 C133.394948,31.0491165 133.388049,31.0455483 133.381865,31.0434074 C133.371636,31.0398392 133.36331,31.0353195 133.354033,31.0329407 C133.348561,31.0329407 133.340236,31.0329407 133.337857,31.0305619 C133.32287,31.0258043 133.309073,31.022474 133.29266,31.016527 C133.105449,30.9841754 132.919665,31.0120073 132.765519,31.1119166 C132.415599,31.3500339 132.362076,31.8878791 132.64872,32.3162998 C132.782646,32.5104093 132.961532,32.645049 133.154214,32.7195052 C133.15802,32.7195052 133.16135,32.7195052 133.169676,32.7240249 C133.175147,32.7252143 133.183473,32.7299719 133.189182,32.7299719 C133.19846,32.7344916 133.207737,32.7344916 133.216063,32.7368704 C133.223913,32.7368704 133.227719,32.7404386 133.23319,32.7425795 C133.248652,32.7461477 133.26126,32.7518568 133.276484,32.7530462 C133.462268,32.7901554 133.649003,32.7635129 133.804814,32.6590839 C134.156875,32.4209667 134.210398,31.8855003 133.923278,31.4580311 C133.790779,31.2617806 133.610942,31.1247621 133.416833,31.056015 L133.416833,31.056015 Z M135.757566,30.0688157 C135.461168,29.9584397 135.434525,30.3081223 135.508982,30.5357729 C135.673832,31.0688605 135.897914,31.4765857 136.061813,31.5579404 C136.218338,31.6530921 136.404122,31.4335295 136.285658,30.9004419 C136.234752,30.6692232 136.059434,30.1860902 135.757566,30.0688157 L135.757566,30.0688157 Z" id="qiwi"></path>
                </g>
            </g>
        </g>
    </g>
</svg>
